<?xml version="1.0" encoding="iso-8859-1"?>
<!-- Generator: Adobe Illustrator 19.0.0, SVG Export Plug-In . SVG Version: 6.00 Build 0)  -->
<svg version="1.1" id="Layer_1" xmlns="http://www.w3.org/2000/svg" xmlns:xlink="http://www.w3.org/1999/xlink" x="0px" y="0px"
	 viewBox="0 0 512 512" style="enable-background:new 0 0 512 512;" xml:space="preserve">
<path style="fill:#FFE6B8;" d="M460.922,160.971c0-59.813-48.488-108.301-108.301-108.301c-5.927,0-11.74,0.483-17.409,1.399
	C318.69,27.721,289.394,10.199,256,10.199s-62.691,17.522-79.213,43.871c-5.669-0.916-11.482-1.399-17.409-1.399
	c-59.813,0-108.301,48.488-108.301,108.301c0,47.154,30.139,87.261,72.2,102.13v238.699h265.445V263.102
	C430.784,248.232,460.922,208.125,460.922,160.971z"/>
<g>
	<path style="fill:#4D3D36;" d="M352.621,42.472c-4.152,0-8.328,0.22-12.478,0.657C320.666,16.002,289.682,0,256,0
		s-64.666,16.002-84.143,43.127c-4.15-0.437-8.326-0.657-12.478-0.657c-65.342,0.001-118.5,53.16-118.5,118.5
		c0,47.69,28.727,90.652,72.2,109.105v231.725c0,5.632,4.567,10.199,10.199,10.199h265.444c5.632,0,10.199-4.567,10.199-10.199
		V270.076c43.473-18.453,72.2-61.415,72.2-109.105C471.122,95.631,417.963,42.472,352.621,42.472z M385.323,253.485
		c-4.075,1.441-6.8,5.293-6.8,9.617v228.5H133.477v-23.135h215.959c5.632,0,10.199-4.567,10.199-10.199
		c0-5.632-4.567-10.199-10.199-10.199h-8.912V318.113c0-5.632-4.567-10.199-10.199-10.199c-5.632,0-10.199,4.567-10.199,10.199
		v129.955h-54.988V284.138c0-5.632-4.567-10.199-10.199-10.199s-10.199,4.567-10.199,10.199v163.931h-53.926V271.396
		c0-5.632-4.567-10.199-10.199-10.199s-10.199,4.567-10.199,10.199v176.674h-36.937V263.102c0-4.322-2.725-8.176-6.8-9.617
		c-39.118-13.828-65.4-51.006-65.4-92.514c0-54.094,44.008-98.102,98.102-98.102c5.264,0,10.574,0.427,15.782,1.269
		c4.05,0.651,8.092-1.178,10.269-4.651c15.347-24.476,41.729-39.088,70.57-39.088s55.224,14.612,70.57,39.089
		c2.178,3.472,6.217,5.298,10.269,4.651c5.208-0.841,10.518-1.269,15.782-1.269c54.094,0,98.102,44.008,98.102,98.102
		C450.723,202.479,424.441,239.658,385.323,253.485z"/>
	<path style="fill:#4D3D36;" d="M330.325,261.197c-5.632,0-10.199,4.567-10.199,10.199v6.366c0,5.632,4.567,10.199,10.199,10.199
		c5.632,0,10.199-4.567,10.199-10.199v-6.366C340.524,265.763,335.958,261.197,330.325,261.197z"/>
</g>
<g>
</g>
<g>
</g>
<g>
</g>
<g>
</g>
<g>
</g>
<g>
</g>
<g>
</g>
<g>
</g>
<g>
</g>
<g>
</g>
<g>
</g>
<g>
</g>
<g>
</g>
<g>
</g>
<g>
</g>
</svg>
